# xmcd
#
# Track frame offsets:
#	150
#	18007
#	36745
#	55937
#	75117
#	94335
#	109870
#	128930
#	146872
#	167687
#	189220
#	207807
#
# Disc length: 2979 seconds
#
# Revision: 1
# Processed by: cddbd v1.4PL0 Copyright (c) Steve Scherf et al.
# Submitted via: audiograbber 1.81.03
#
DISCID=9d0ba10c
DTITLE=J.B. Ritchie - Power Blues
DYEAR=1997
DGENRE=Blues
TTITLE0=Rocket 88
TTITLE1=She's Nineteen Years Old
TTITLE2=Howlin' For My Darlin'
TTITLE3=Champagne and Reefer
TTITLE4=Trouble No More
TTITLE5=Messin' With The Kid
TTITLE6=I'm Your Hoochie Choochie Man
TTITLE7=Shake It For Me
TTITLE8=Nervous Breakdown
TTITLE9=You Don't Gotta
TTITLE10=Little Red Rooster
TTITLE11=Shake Your Money Maker
EXTD=
EXTT0=
EXTT1=
EXTT2=
EXTT3=
EXTT4=
EXTT5=
EXTT6=
EXTT7=
EXTT8=
EXTT9=
EXTT10=
EXTT11=
PLAYORDER=
